<?xml version="1.0" encoding="UTF-8" standalone="no"?><svg xmlns="http://www.w3.org/2000/svg" xmlns:xlink="http://www.w3.org/1999/xlink"><symbol viewBox="0 0 128 100" id="appointments" xmlns="http://www.w3.org/2000/svg"><path d="M64 58.703c2 .683 3.6 1.707 5.2 2.39 1.6.682 2.8 1.706 4 2.388 1.2.683 1.6 1.707 2.4 2.73.4 1.024.8 2.048.8 3.072 0 2.39-.8 4.096-2.8 5.461-2 1.365-4.8 2.048-8.4 2.048-4 0-6.8-.683-8.8-2.048-2-1.365-2.8-3.413-2.8-5.802 0-1.024.4-2.048.8-3.072s1.2-1.706 2-2.73c.8-.683 2-1.707 3.6-2.39.4-.34 2.4-1.023 4-2.047zm.4-22.184c1.6 0 2.8 0 4 .341 1.2.341 2.4.683 3.2 1.365.8.683 1.6 1.365 2 2.048.4 1.024.8 1.707.8 3.072 0 2.047-.8 3.754-2.4 5.46-1.6 1.707-4 3.072-6.8 4.437-1.6-.682-3.2-1.706-4.4-2.389-1.2-.682-2.4-1.365-3.2-2.389-.8-.682-1.6-1.706-2-2.389-.4-.683-.4-1.706-.4-2.73 0-2.048.8-3.755 2.4-5.12 1.2-1.024 3.6-1.706 6.8-1.706zm.8-5.12c-3.2 0-5.6.342-8 1.024-2.4.683-4 1.365-5.6 2.73-1.6 1.024-2.4 2.39-3.2 4.096-.8 1.365-1.2 3.072-1.2 4.778 0 1.365.4 2.73.8 3.755.4 1.023 1.2 2.389 2 3.413.8 1.023 2 2.047 3.6 2.73 1.2 1.024 2.8 1.706 4.8 2.389-2 1.024-4 1.706-5.6 2.73-1.6 1.024-2.8 2.048-4 3.072-1.2 1.024-2 2.39-2.4 3.754-.4 1.365-.8 2.73-.8 4.437 0 2.048.4 3.754 1.2 5.12.8 1.365 2 2.73 3.6 3.754s3.6 1.706 6 2.389c2.4.683 4.8.683 8 .683s6-.342 8.4-1.024c2.4-.683 4.4-1.366 6-2.73 1.6-1.025 2.8-2.39 4-4.096.8-1.707 1.2-3.413 1.2-5.802 0-1.366-.4-2.73-.8-4.096-.4-1.365-1.6-2.389-2.4-3.413-1.2-1.024-2.4-2.048-4-3.072-1.6-1.023-3.6-1.706-5.6-2.73 1.6-.682 3.2-1.706 4.8-2.73l3.6-3.072c.8-1.024 1.6-2.048 2-3.413.4-1.365.8-2.389.8-3.754 0-1.707-.4-3.072-.8-4.437-.8-1.365-1.6-2.73-3.2-3.754-1.2-1.024-3.2-1.707-5.2-2.39-2.8 0-5.2-.34-8-.34zm-50-22.184h9.6v11.604c0 3.413 3.2 6.485 7.2 6.485s7.6-2.73 7.6-6.485V9.215H88v11.604c0 3.413 3.2 6.485 7.6 6.485 4 0 7.6-2.73 7.6-6.485V9.215h9.6c8.4 0 15.2 5.802 15.2 12.97V87.03c0 7.167-6.8 12.969-15.2 12.969H15.2C6.8 100 0 94.198 0 87.03V22.185C0 15.017 6.8 9.215 15.2 9.215zM95.6 0c2 0 3.6 1.365 3.6 3.072v15.7c0 1.706-1.6 3.071-3.6 3.071S92 20.478 92 18.771v-15.7C91.6 1.366 93.6 0 95.6 0zM32 0c2 0 3.6 1.365 3.6 3.072v15.7c0 1.706-1.6 3.071-3.6 3.071-2.4.341-4-1.024-4-2.73V3.072C28 1.365 29.6 0 32 0z" fill="currentColor"/></symbol><symbol viewBox="0 0 128 100" id="billing" xmlns="http://www.w3.org/2000/svg"><path d="M35.734 67.381H128v27.386c0 2.886-2.204 5.233-4.924 5.233H40.655c-2.716 0-4.92-2.347-4.92-5.233zm-2.884-8.698v36.084c0 .863.16 1.68.392 2.466l-.92.629c-2.28 1.564-5.328.867-6.8-1.565L11.554 73.282zm7.805-17.642h82.421c2.72 0 4.924 2.343 4.924 5.233v8.728H35.734v-8.728c0-2.89 2.205-5.233 4.92-5.233zm48.428-20.91L99.92 37.98H63.05zM74.283 0c1.58.034 3.116.88 4.036 2.398l4.448 7.329L5.238 62.879.786 55.55c-1.472-2.427-.816-5.666 1.464-7.23L71.515.838A4.664 4.664 0 0 1 74.283 0z" fill="currentColor"/></symbol><symbol viewBox="0 0 128 128" id="home" xmlns="http://www.w3.org/2000/svg"><path d="M64.976 38.562l46.692 31.368v46.968H16.356V69.93zm-.124-27.46L128 54.462v14.304L64.94 25.374 0 70.03V55.702z"/></symbol><symbol viewBox="0 0 128 128" id="logout" xmlns="http://www.w3.org/2000/svg"><path fill="#FFF" d="M42 18v17.2c-12 7.2-20 20.4-20 35.6 0 23.2 18.8 42 42 42s42-18.8 42-42c0-15.2-8.4-28.8-20.4-36V18c20.8 8.4 35.6 28.8 35.6 52.8 0 31.6-25.6 57.2-57.2 57.2S6.8 102.4 6.8 70.8c0-23.6 14.4-44 35.2-52.8zM62.8 0h1.6c4.8 0 8.4 3.6 8.4 8.4V72c0 4.8-3.6 8.4-8.4 8.4h-1.6c-4.8 0-8.4-3.6-8.4-8.4V8.4c0-4.8 4-8.4 8.4-8.4z"/></symbol><symbol viewBox="0 0 128 128" id="notifications" xmlns="http://www.w3.org/2000/svg"><path d="M51.887 112l.147.291c2.458 4.619 6.904 7.709 11.97 7.709 5.066 0 9.512-3.09 11.97-7.709l.147-.291zM63.933 8c-11.5.168-20.52 3.364-25.972 9.252-7.64 8.256-6.924 18.872-6.916 18.976 5.2 33.78-5 42.476-7.1 43.872l-.544.324C12.617 89.36 13.14 99.452 15.069 104h97.868c1.936-4.62 2.412-14.664-8.312-23.564l-.344-.2c-2.316-1.532-12.528-10.228-7.292-44.26-.012 0 .636-10.524-6.956-18.724-5.452-5.888-14.476-9.084-26.1-9.252zm0-8c13.98.2 24.996 4.284 31.968 11.82 10.232 11.044 9.036 25 9.024 25.14-4.58 29.808 3.564 36.468 3.644 36.536l.868.54c15.304 12.476 13.544 27.66 10.476 33.948l-1.88 4.016h-33.29l-.076.244C81.578 121.43 73.482 128 64.004 128s-17.574-6.57-20.663-15.756l-.076-.244H9.981l-1.912-4.076c-3.044-6.228-4.804-21.412 10.5-33.888l1.15-.723-.002.003.004-.004h-.002l.015-.016c.408-.427 7.742-7.697 3.375-36.108-.044-.368-1.24-14.328 8.98-25.368C39.069 4.284 50.077.2 63.933 0z"/></symbol><symbol viewBox="0 0 124.8 99.999997" id="patients" xmlns="http://www.w3.org/2000/svg"><path d="M78.78 19.767c-9.75 0-17.55 9.69-17.55 21.706 0 10.077 4.68 16.667 11.31 20.543v6.201c-14.04 5.814-26.52 12.016-31.2 25.969h74.88c-4.68-13.566-17.16-20.543-31.2-25.581v-6.202c6.63-3.876 11.31-10.853 11.31-20.155 0-12.79-8.19-22.48-17.55-22.48zm0-6.201c13.26 0 23.79 12.403 23.79 27.907 0 9.302-3.9 17.442-10.14 22.868 12.48 5.039 24.57 12.79 29.64 27.52L124.8 100H32.37l2.73-8.14c5.07-14.728 17.16-22.093 29.64-27.519-6.63-5.426-10.14-13.566-10.14-22.868.39-15.504 10.92-27.907 24.18-27.907zM46.02 0c7.8 0 14.43 4.264 18.72 10.853-1.95 1.163-3.51 2.325-5.07 3.488-3.12-5.039-8.19-8.527-14.04-8.527-9.75 0-17.55 9.69-17.55 21.705 0 10.078 4.68 16.667 11.31 20.543v6.202c-14.04 5.814-26.52 12.015-31.2 25.969h25.35c-1.17 1.938-2.34 3.876-3.12 6.201H0l2.73-8.14C7.8 63.567 19.89 56.203 32.37 50.776 25.74 45.35 22.23 37.21 22.23 27.907 22.62 12.403 33.15 0 46.02 0z" fill="currentColor"/></symbol><symbol viewBox="0 0 128 128" id="save" xmlns="http://www.w3.org/2000/svg"><path fill="#FFF" d="M116.172 81.216l-20.428 20.432-9.668-9.684-3.772 3.764 13.44 13.436 24.2-24.18zm-15.048-12.36c14.776 0 26.876 12.1 26.876 26.872 0 14.776-12.1 26.876-26.876 26.876-14.772 0-26.872-12.1-26.872-26.876 0-14.772 12.1-26.872 26.872-26.872zm-35.06-63.46H80.76v32.472H66.064zm-55.988 0h17.076v31.352c0 4.64 3.76 8.4 8.4 8.4H78.38c4.64 0 8.4-3.76 8.4-8.4V5.396h11.572l15.58 15.58v45.172a32.033 32.033 0 0 0-12.804-2.668c-17.784 0-32.248 14.464-32.248 32.248 0 8.74 3.504 16.668 9.172 22.48H10.076C4.512 118.208 0 113.7 0 108.132v-92.66C0 9.908 4.512 5.396 10.076 5.396z"/></symbol><symbol viewBox="0 0 100 100" id="settings" xmlns="http://www.w3.org/2000/svg"><path d="M50.195 30.096c-10.913 0-19.64 9.063-19.64 20.39 0 11.328 8.727 20.388 19.64 20.388s19.64-9.384 19.64-20.387c0-11.328-8.727-20.391-19.64-20.391zM35.855 0c2.805 7.444 8.727 14.565 18.393 12.622 5.3-.97 8.419-5.826 9.666-11.652 9.04 1.619 13.406 3.886 20.266 11.006-10.291 10.354-2.497 31.715 14.34 25.889 1.87 7.766 2.182 17.799-.312 25.24-12.16-1.615-21.513 3.562-19.332 16.829.313 2.588 4.679 7.444 4.679 7.444S75.76 97.733 64.223 100c-1.869-15.535-26.188-15.535-28.056 0-10.6-1.943-14.344-4.532-20.891-11.652C26.189 78.964 17.148 57.282.936 63.43c-1.248-7.765-1.248-18.123 0-25.888C15.9 41.423 24.941 27.507 18.706 16.504l-3.119-3.234S21.513 4.856 35.854 0z"/></symbol></svg>