<?xml version="1.0" encoding="UTF-8" standalone="no"?><svg xmlns="http://www.w3.org/2000/svg" xmlns:xlink="http://www.w3.org/1999/xlink"><symbol viewBox="0 0 128 100" id="appointments" xmlns="http://www.w3.org/2000/svg"><path d="M64 58.703c2 .683 3.6 1.707 5.2 2.39 1.6.682 2.8 1.706 4 2.388 1.2.683 1.6 1.707 2.4 2.73.4 1.024.8 2.048.8 3.072 0 2.39-.8 4.096-2.8 5.461-2 1.365-4.8 2.048-8.4 2.048-4 0-6.8-.683-8.8-2.048-2-1.365-2.8-3.413-2.8-5.802 0-1.024.4-2.048.8-3.072s1.2-1.706 2-2.73c.8-.683 2-1.707 3.6-2.39.4-.34 2.4-1.023 4-2.047zm.4-22.184c1.6 0 2.8 0 4 .341 1.2.341 2.4.683 3.2 1.365.8.683 1.6 1.365 2 2.048.4 1.024.8 1.707.8 3.072 0 2.047-.8 3.754-2.4 5.46-1.6 1.707-4 3.072-6.8 4.437-1.6-.682-3.2-1.706-4.4-2.389-1.2-.682-2.4-1.365-3.2-2.389-.8-.682-1.6-1.706-2-2.389-.4-.683-.4-1.706-.4-2.73 0-2.048.8-3.755 2.4-5.12 1.2-1.024 3.6-1.706 6.8-1.706zm.8-5.12c-3.2 0-5.6.342-8 1.024-2.4.683-4 1.365-5.6 2.73-1.6 1.024-2.4 2.39-3.2 4.096-.8 1.365-1.2 3.072-1.2 4.778 0 1.365.4 2.73.8 3.755.4 1.023 1.2 2.389 2 3.413.8 1.023 2 2.047 3.6 2.73 1.2 1.024 2.8 1.706 4.8 2.389-2 1.024-4 1.706-5.6 2.73-1.6 1.024-2.8 2.048-4 3.072-1.2 1.024-2 2.39-2.4 3.754-.4 1.365-.8 2.73-.8 4.437 0 2.048.4 3.754 1.2 5.12.8 1.365 2 2.73 3.6 3.754s3.6 1.706 6 2.389c2.4.683 4.8.683 8 .683s6-.342 8.4-1.024c2.4-.683 4.4-1.366 6-2.73 1.6-1.025 2.8-2.39 4-4.096.8-1.707 1.2-3.413 1.2-5.802 0-1.366-.4-2.73-.8-4.096-.4-1.365-1.6-2.389-2.4-3.413-1.2-1.024-2.4-2.048-4-3.072-1.6-1.023-3.6-1.706-5.6-2.73 1.6-.682 3.2-1.706 4.8-2.73l3.6-3.072c.8-1.024 1.6-2.048 2-3.413.4-1.365.8-2.389.8-3.754 0-1.707-.4-3.072-.8-4.437-.8-1.365-1.6-2.73-3.2-3.754-1.2-1.024-3.2-1.707-5.2-2.39-2.8 0-5.2-.34-8-.34zm-50-22.184h9.6v11.604c0 3.413 3.2 6.485 7.2 6.485s7.6-2.73 7.6-6.485V9.215H88v11.604c0 3.413 3.2 6.485 7.6 6.485 4 0 7.6-2.73 7.6-6.485V9.215h9.6c8.4 0 15.2 5.802 15.2 12.97V87.03c0 7.167-6.8 12.969-15.2 12.969H15.2C6.8 100 0 94.198 0 87.03V22.185C0 15.017 6.8 9.215 15.2 9.215zM95.6 0c2 0 3.6 1.365 3.6 3.072v15.7c0 1.706-1.6 3.071-3.6 3.071S92 20.478 92 18.771v-15.7C91.6 1.366 93.6 0 95.6 0zM32 0c2 0 3.6 1.365 3.6 3.072v15.7c0 1.706-1.6 3.071-3.6 3.071-2.4.341-4-1.024-4-2.73V3.072C28 1.365 29.6 0 32 0z" fill="currentColor"/></symbol><symbol viewBox="0 0 128 100" id="billing" xmlns="http://www.w3.org/2000/svg"><path d="M35.734 67.381H128v27.386c0 2.886-2.204 5.233-4.924 5.233H40.655c-2.716 0-4.92-2.347-4.92-5.233zm-2.884-8.698v36.084c0 .863.16 1.68.392 2.466l-.92.629c-2.28 1.564-5.328.867-6.8-1.565L11.554 73.282zm7.805-17.642h82.421c2.72 0 4.924 2.343 4.924 5.233v8.728H35.734v-8.728c0-2.89 2.205-5.233 4.92-5.233zm48.428-20.91L99.92 37.98H63.05zM74.283 0c1.58.034 3.116.88 4.036 2.398l4.448 7.329L5.238 62.879.786 55.55c-1.472-2.427-.816-5.666 1.464-7.23L71.515.838A4.664 4.664 0 0 1 74.283 0z" fill="currentColor"/></symbol><symbol viewBox="0 0 128 128" id="bullet" xmlns="http://www.w3.org/2000/svg"><path d="M64 1.6c34.32 0 62.4 28.08 62.4 62.4S98.32 126.4 64 126.4 1.6 98.32 1.6 64 29.68 1.6 64 1.6z"/></symbol><symbol viewBox="0 0 128 128" id="edit" xmlns="http://www.w3.org/2000/svg"><path fill="currentColor" d="M82.088 39.188l-54.6 54.6 6.724 6.724 54.6-54.6zM81.55 19.15l27.3 27.3L36.7 118.6l-35.1 7.8 7.8-35.1zM106.9 1.6c10.768 0 19.5 8.732 19.5 19.5 0 4.39-1.45 8.44-3.9 11.7l-7.8 7.8-27.3-27.3 7.8-7.8c3.26-2.45 7.31-3.9 11.7-3.9z"/></symbol><symbol viewBox="0 0 128 128" id="email" xmlns="http://www.w3.org/2000/svg"><path d="M65.187 52.586l-3.43.448-3.223 1.346-3.07 2.34-2.975 3.43-2.636 4.402-2.057 5.259-1.325 5.452-.441 4.982.224 3.571.673 3.15 1.121 2.73 1.57 2.308 1.86 1.836 1.991 1.311 2.122.787 2.253.262 3.175-.462 3.34-1.387 3.347-2.298 3.195-3.196 2.836-4.133 2.27-5.114L77.499 74l.497-5.625-.233-3.543-.698-3.123-1.165-2.702-1.63-2.28-1.965-1.812-2.169-1.294-2.372-.776-2.576-.26zm4.306-30.806l6.672.35 6.323 1.05 5.974 1.752 5.626 2.451 5.164 3.145 4.588 3.832 4.01 4.519 3.436 5.205 2.343 4.879 1.673 5.086 1.004 5.293.335 5.5-.704 7.78-2.112 7.333-3.52 6.884-4.927 6.435-5.14 4.88-5.377 3.484-5.61 2.091-5.845.697-3.444-.29-2.712-.87-2.036-1.407-1.415-1.905-.62-1.877-.429-2.87-3.802 3.733-4.23 2.919-4.451 1.884-4.465.628-4.845-.718-4.706-2.153-4.203-3.644-3.333-5.19-2.174-6.251-.725-6.832.282-4.391.843-4.394 1.406-4.398 1.969-4.401 2.386-4.129 2.658-3.58 2.932-3.03 3.203-2.484 3.316-1.932 3.268-1.38 3.22-.828 3.17-.276 4.693.628 4.472 1.884 4.058 3.167 3.45 4.48 1.877-8.558h9.882l-7.95 37.044-.724 3.434-.518 2.57-.31 1.708-.104.846.283 1.387.849 1.18 1.25.807 1.483.27 3.381-.843 4.293-2.525 5.638-5.17 4.327-6.672 1.606-3.742 1.147-3.801.689-3.86.23-3.918-.296-4.534-.885-4.382-1.475-4.23-2.065-4.079-2.65-3.802-3.23-3.402-3.81-3.002-4.388-2.602-4.802-2.101-5.046-1.501-5.291-.9-5.537-.3-6.32.377-6.04 1.133-5.76 1.89-5.481 2.644-5.041 3.35-4.441 4.007-3.84 4.661-3.24 5.318-2.573 5.747-1.837 5.95-1.103 6.154-.367 6.357.367 6.529 1.103 6.059 1.837 5.59 2.572 5.12 3.268 4.567 3.923 3.928 4.58 3.29 5.234 2.652 5.712 2.041 6.012 1.458 6.313.875 6.613.291 6.939-.303 6.352-.911 5.766-1.519 5.18-2.125 4.578-2.56 3.965-2.823 3.35-3.085 2.736-3.347h9.993l-1.66 2.913-2.163 2.94-2.667 2.967-3.171 2.995-7.495 5.39-8.792 4.133-4.962 1.534-5.444 1.096-5.928.657-6.411.219-11.78-.787-10.828-2.36-9.586-3.94-8.053-5.528-3.42-3.28-2.97-3.518-2.523-3.755-2.074-3.994-2.028-5.321-1.45-5.528-.87-5.734-.289-5.942.345-6.656 1.035-6.498 1.725-6.338 2.416-6.18 3.721-7.042 4.429-6.167 5.136-5.29 5.843-4.412 6.527-3.478 7.186-2.485 7.844-1.49 8.504-.497z"/></symbol><symbol viewBox="0 0 128 128" id="female" xmlns="http://www.w3.org/2000/svg"><path d="M63.948 11.318a27.647 27.647 0 0 0-19.58 8.112c-10.817 10.416-10.817 28.045 0 38.86 10.816 10.817 28.044 10.817 38.86 0 10.817-10.415 10.817-28.044 0-38.86-5.208-5.408-12.219-8.112-19.28-8.112zM64 0c10.016 0 20.033 3.806 27.645 11.418 15.224 15.224 15.224 40.06 0 55.285-6.412 6.012-14.025 9.616-21.637 10.82v13.22h14.425v12.417H70.008V128h-12.82v-24.84h-13.22V90.743h13.22v-13.22c-7.612-1.204-14.825-4.808-20.833-10.82-15.224-15.224-15.224-40.06 0-55.285C43.967 3.806 53.984 0 64 0z"/></symbol><symbol viewBox="0 0 128 128" id="home" xmlns="http://www.w3.org/2000/svg"><path d="M64.976 38.562l46.692 31.368v46.968H16.356V69.93zm-.124-27.46L128 54.462v14.304L64.94 25.374 0 70.03V55.702z"/></symbol><symbol viewBox="0 0 128 128" id="logout" xmlns="http://www.w3.org/2000/svg"><path fill="#FFF" d="M42 18v17.2c-12 7.2-20 20.4-20 35.6 0 23.2 18.8 42 42 42s42-18.8 42-42c0-15.2-8.4-28.8-20.4-36V18c20.8 8.4 35.6 28.8 35.6 52.8 0 31.6-25.6 57.2-57.2 57.2S6.8 102.4 6.8 70.8c0-23.6 14.4-44 35.2-52.8zM62.8 0h1.6c4.8 0 8.4 3.6 8.4 8.4V72c0 4.8-3.6 8.4-8.4 8.4h-1.6c-4.8 0-8.4-3.6-8.4-8.4V8.4c0-4.8 4-8.4 8.4-8.4z"/></symbol><symbol viewBox="0 0 128 128" id="male" xmlns="http://www.w3.org/2000/svg"><path d="M43.2 54.2c-16.8 0-30.4 13.6-30.4 30.4 0 16.8 13.6 30.4 30.4 30.4 16.8 0 30.4-13.6 30.4-30.4 0-16.8-13.6-30.4-30.4-30.4zM112 .6h16v48l-15.6-4.4v-20L78 58.6c5.2 7.2 8.4 16 8.4 25.6 0 23.6-19.2 43.2-43.2 43.2C19.6 127.4 0 108.2 0 84.2 0 60.6 19.2 41 43.2 41c10 0 19.2 3.6 26.8 9.6l34-34H84L79.6 1H112z"/></symbol><symbol viewBox="0 0 128 128" id="mobile" xmlns="http://www.w3.org/2000/svg"><path d="M60.2 113.2c-1.6 0-2.8 1.6-2.8 3.6v2c0 2 1.2 3.6 2.8 3.6h8c1.6 0 2.8-1.6 2.8-3.6v-2c0-2-1.2-3.6-2.8-3.6zM35.8 16v91.6h56V16zM52.2 4.8v.4c-.8 0-1.2.8-1.2 1.6-.4.8.4 1.2 1.2 1.2h25.2c.8 0 1.2-.8 1.2-1.6s-.8-1.6-1.2-1.6zM37.8 0h52.4c4 0 7.6 3.6 7.6 8v112c0 4.4-3.2 8-7.6 8H37.8c-4 0-7.6-3.6-7.6-8V8c0-4.4 3.2-8 7.6-8z"/></symbol><symbol viewBox="0 0 128 128" id="notifications" xmlns="http://www.w3.org/2000/svg"><path d="M51.887 112l.147.291c2.458 4.619 6.904 7.709 11.97 7.709 5.066 0 9.512-3.09 11.97-7.709l.147-.291zM63.933 8c-11.5.168-20.52 3.364-25.972 9.252-7.64 8.256-6.924 18.872-6.916 18.976 5.2 33.78-5 42.476-7.1 43.872l-.544.324C12.617 89.36 13.14 99.452 15.069 104h97.868c1.936-4.62 2.412-14.664-8.312-23.564l-.344-.2c-2.316-1.532-12.528-10.228-7.292-44.26-.012 0 .636-10.524-6.956-18.724-5.452-5.888-14.476-9.084-26.1-9.252zm0-8c13.98.2 24.996 4.284 31.968 11.82 10.232 11.044 9.036 25 9.024 25.14-4.58 29.808 3.564 36.468 3.644 36.536l.868.54c15.304 12.476 13.544 27.66 10.476 33.948l-1.88 4.016h-33.29l-.076.244C81.578 121.43 73.482 128 64.004 128s-17.574-6.57-20.663-15.756l-.076-.244H9.981l-1.912-4.076c-3.044-6.228-4.804-21.412 10.5-33.888l1.15-.723-.002.003.004-.004h-.002l.015-.016c.408-.427 7.742-7.697 3.375-36.108-.044-.368-1.24-14.328 8.98-25.368C39.069 4.284 50.077.2 63.933 0z"/></symbol><symbol viewBox="0 0 124.8 99.999997" id="patients" xmlns="http://www.w3.org/2000/svg"><path d="M78.78 19.767c-9.75 0-17.55 9.69-17.55 21.706 0 10.077 4.68 16.667 11.31 20.543v6.201c-14.04 5.814-26.52 12.016-31.2 25.969h74.88c-4.68-13.566-17.16-20.543-31.2-25.581v-6.202c6.63-3.876 11.31-10.853 11.31-20.155 0-12.79-8.19-22.48-17.55-22.48zm0-6.201c13.26 0 23.79 12.403 23.79 27.907 0 9.302-3.9 17.442-10.14 22.868 12.48 5.039 24.57 12.79 29.64 27.52L124.8 100H32.37l2.73-8.14c5.07-14.728 17.16-22.093 29.64-27.519-6.63-5.426-10.14-13.566-10.14-22.868.39-15.504 10.92-27.907 24.18-27.907zM46.02 0c7.8 0 14.43 4.264 18.72 10.853-1.95 1.163-3.51 2.325-5.07 3.488-3.12-5.039-8.19-8.527-14.04-8.527-9.75 0-17.55 9.69-17.55 21.705 0 10.078 4.68 16.667 11.31 20.543v6.202c-14.04 5.814-26.52 12.015-31.2 25.969h25.35c-1.17 1.938-2.34 3.876-3.12 6.201H0l2.73-8.14C7.8 63.567 19.89 56.203 32.37 50.776 25.74 45.35 22.23 37.21 22.23 27.907 22.62 12.403 33.15 0 46.02 0z" fill="currentColor"/></symbol><symbol viewBox="0 0 128 128" id="save" xmlns="http://www.w3.org/2000/svg"><path fill="#FFF" d="M116.172 81.216l-20.428 20.432-9.668-9.684-3.772 3.764 13.44 13.436 24.2-24.18zm-15.048-12.36c14.776 0 26.876 12.1 26.876 26.872 0 14.776-12.1 26.876-26.876 26.876-14.772 0-26.872-12.1-26.872-26.876 0-14.772 12.1-26.872 26.872-26.872zm-35.06-63.46H80.76v32.472H66.064zm-55.988 0h17.076v31.352c0 4.64 3.76 8.4 8.4 8.4H78.38c4.64 0 8.4-3.76 8.4-8.4V5.396h11.572l15.58 15.58v45.172a32.033 32.033 0 0 0-12.804-2.668c-17.784 0-32.248 14.464-32.248 32.248 0 8.74 3.504 16.668 9.172 22.48H10.076C4.512 118.208 0 113.7 0 108.132v-92.66C0 9.908 4.512 5.396 10.076 5.396z"/></symbol><symbol viewBox="0 0 100 100" id="settings" xmlns="http://www.w3.org/2000/svg"><path d="M50.195 30.096c-10.913 0-19.64 9.063-19.64 20.39 0 11.328 8.727 20.388 19.64 20.388s19.64-9.384 19.64-20.387c0-11.328-8.727-20.391-19.64-20.391zM35.855 0c2.805 7.444 8.727 14.565 18.393 12.622 5.3-.97 8.419-5.826 9.666-11.652 9.04 1.619 13.406 3.886 20.266 11.006-10.291 10.354-2.497 31.715 14.34 25.889 1.87 7.766 2.182 17.799-.312 25.24-12.16-1.615-21.513 3.562-19.332 16.829.313 2.588 4.679 7.444 4.679 7.444S75.76 97.733 64.223 100c-1.869-15.535-26.188-15.535-28.056 0-10.6-1.943-14.344-4.532-20.891-11.652C26.189 78.964 17.148 57.282.936 63.43c-1.248-7.765-1.248-18.123 0-25.888C15.9 41.423 24.941 27.507 18.706 16.504l-3.119-3.234S21.513 4.856 35.854 0z"/></symbol></svg>