<svg width="0" height="0" style="position:absolute"><symbol viewBox="0 0 128 128" id="add" xmlns="http://www.w3.org/2000/svg"><ellipse cy="64" cx="64" ry="61.875" rx="61.875"/><path id="path1" class="icon" transform="translate(30 30) scale(2.125)" fill="currentColor" d="M14 0h4v14h14v4H18v14h-4V18H0v-4h14z"/></symbol><symbol viewBox="0 0 128 100" id="appointments" xmlns="http://www.w3.org/2000/svg"><g id="g4" transform="matrix(1 0 0 .85324 0 -4.608)"><path id="path1" transform="matrix(4 0 0 4 0 5.4)" d="M16 17.2c.5.2.9.5 1.3.7.4.2.7.5 1 .7.3.2.4.5.6.8.1.3.2.6.2.9 0 .7-.2 1.2-.7 1.6-.5.4-1.2.6-2.1.6-1 0-1.7-.2-2.2-.6-.5-.4-.7-1-.7-1.7 0-.3.1-.6.2-.9.1-.3.3-.5.5-.8.2-.2.5-.5.9-.7.1-.1.6-.3 1-.6zm.1-6.5c.4 0 .7 0 1 .1.3.1.6.2.8.4.2.2.4.4.5.6.1.3.2.5.2.9 0 .6-.2 1.1-.6 1.6-.4.5-1 .9-1.7 1.3-.4-.2-.8-.5-1.1-.7-.3-.2-.6-.4-.8-.7-.2-.2-.4-.5-.5-.7-.1-.2-.1-.5-.1-.8 0-.6.2-1.1.6-1.5.3-.3.9-.5 1.7-.5zm.2-1.5c-.8 0-1.4.1-2 .3-.6.2-1 .4-1.4.8-.4.3-.6.7-.8 1.2-.2.4-.3.9-.3 1.4 0 .4.1.8.2 1.1.1.3.3.7.5 1 .2.3.5.6.9.8.3.3.7.5 1.2.7-.5.3-1 .5-1.4.8-.4.3-.7.6-1 .9-.3.3-.5.7-.6 1.1-.1.4-.2.8-.2 1.3 0 .6.1 1.1.3 1.5.2.4.5.8.9 1.1.4.3.9.5 1.5.7.6.2 1.2.2 2 .2s1.5-.1 2.1-.3c.6-.2 1.1-.4 1.5-.8.4-.3.7-.7 1-1.2.2-.5.3-1 .3-1.7 0-.4-.1-.8-.2-1.2-.1-.4-.4-.7-.6-1-.3-.3-.6-.6-1-.9-.4-.3-.9-.5-1.4-.8.4-.2.8-.5 1.2-.8l.9-.9c.2-.3.4-.6.5-1 .1-.4.2-.7.2-1.1 0-.5-.1-.9-.2-1.3-.2-.4-.4-.8-.8-1.1-.3-.3-.8-.5-1.3-.7-.7 0-1.3-.1-2-.1zM3.8 2.7h2.4v3.4C6.2 7.1 7 8 8 8s1.9-.8 1.9-1.9V2.7H22v3.4c0 1 .8 1.9 1.9 1.9 1 0 1.9-.8 1.9-1.9V2.7h2.4c2.1 0 3.8 1.7 3.8 3.8v19c0 2.1-1.7 3.8-3.8 3.8H3.8c-2.1 0-3.8-1.7-3.8-3.8v-19c0-2.1 1.7-3.8 3.8-3.8zM23.9 0c.5 0 .9.4.9.9v4.6c0 .5-.4.9-.9.9S23 6 23 5.5V.9c-.1-.5.4-.9.9-.9zM8 0c.5 0 .9.4.9.9v4.6c0 .5-.4.9-.9.9-.6.1-1-.3-1-.8V.9c0-.5.4-.9 1-.9z" fill="currentColor"/></g></symbol><symbol viewBox="0 0 128 100" id="billing" xmlns="http://www.w3.org/2000/svg"><g id="g4" transform="matrix(1 0 0 1.06276 0 -18.016)"><path id="path1" transform="matrix(4.00013 0 0 4.00013 0 16.953)" d="M8.933 15.85H32v6.442c0 .679-.551 1.231-1.231 1.231H10.163c-.679 0-1.23-.552-1.23-1.231zm-.72-2.046v8.488c0 .203.04.395.097.58l-.23.148a1.23 1.23 0 0 1-1.7-.368l-3.492-5.414zm1.95-4.15h20.605c.68 0 1.231.551 1.231 1.231v2.053H8.933v-2.053c0-.68.551-1.23 1.23-1.23zM22.27 4.735l2.71 4.2h-9.218zM18.57 0c.395.008.78.207 1.01.564l1.111 1.724L1.31 14.791.196 13.067a1.231 1.231 0 0 1 .366-1.7L17.878.196c.214-.139.455-.202.692-.197z" fill="currentColor"/></g></symbol><symbol viewBox="0 0 128 128" id="bullet" xmlns="http://www.w3.org/2000/svg"><path d="M64 1.6c34.32 0 62.4 28.08 62.4 62.4S98.32 126.4 64 126.4 1.6 98.32 1.6 64 29.68 1.6 64 1.6z"/></symbol><symbol viewBox="0 0 128 128" id="cake" xmlns="http://www.w3.org/2000/svg"><path id="path1" class="icon" transform="matrix(4 0 0 4 17.832 0)" fill="currentColor" d="M11.128 25.505a1.435 1.435 0 1 0 0 2.87 1.435 1.435 0 0 0 0-2.87zm7.824-1.571a1.274 1.274 0 1 0 .001 2.547 1.274 1.274 0 0 0-.001-2.547zM2.976 22.499a.976.976 0 1 0 0 1.952.976.976 0 0 0 0-1.952zm.088-3.12c.69.01 1.372.25 2.017.838.925.843 1.469 1.479 2.752 1.684.828.133 1.648-.176 2.33-.62.396-.257.706-.646 1.024-.99.85-.916 1.42.27 1.832.697 1.463 1.517 3.737.172 5.012-.83 1.701-1.338 2.592.03 3.921.773.318.177.654.289 1 .356l.132.023v4.734l-.005.168.001.006c.002.049.004.097.004.146 0 .632-.213 1.24-.607 1.808l-.038.053-.041.063a4.026 4.026 0 0 1-1.084 1.085l-.07.045-.131.097C19.039 31.015 15.526 32 11.542 32s-7.497-.985-9.571-2.485l-.133-.098-.068-.044a4.044 4.044 0 0 1-1.085-1.085l-.04-.062-.039-.054C.213 27.604 0 26.996 0 26.364c0-.049.001-.097.003-.146l.001-.006L0 26.044V20.47l.307-.187c.842-.491 1.735-.877 2.619-.902.046-.001.093-.002.138-.001zM14.801 5.922l1.248.06-.121 6.513h3.141a4.015 4.015 0 0 1 4.015 4.014v3.252l-.004-.002c-1.259-.667-2.36-1.762-4.039-1.272-1.206.35-3.623 2.355-4.484 1.46-.747-.773-1.037-1.24-2.204-1.242-1.063-.002-1.988.522-2.73 1.237-.75.722-.999 1.118-2.034.224-.554-.48-1.006-1.008-1.61-1.433-1.687-1.19-3.881-.596-5.814.377L0 19.194v-2.686a4.015 4.015 0 0 1 4.015-4.014h2.556l.118-6.277 1.25-.033.379 6.31h5.839zm.851-5.736c.123.003.255.059.319.15.248.789.325 1.582.447 2.386.03.209.05.399.056.572.103.718-.496 1.755-1.302 1.322-1.496-.814-.067-2.667.036-3.91.058-.14.123-.277.195-.411.041-.065.114-.1.197-.107a.298.298 0 0 1 .052-.002zM7.316 0a.546.546 0 0 1 .057 0c.134.007.275.07.342.17.245.862.308 1.722.417 2.596.027.226.043.433.046.619.09.78-.586 1.886-1.446 1.394-1.598-.921 0-2.887.147-4.228A4.43 4.43 0 0 1 7.101.11c.046-.07.126-.103.215-.11z"/></symbol><symbol viewBox="0 0 128 128" id="edit" xmlns="http://www.w3.org/2000/svg"><ellipse cy="64" cx="64" ry="61.875" rx="61.875"/><path id="path1" class="icon" transform="matrix(2.125 0 0 2.125 30 30.001)" fill="currentColor" d="M1.867 22.669l7.465 7.463L0 31.999zM18.663 5.87l7.466 7.465-14.93 14.931-7.466-7.466zM25.197 0c.408 0 .816.155 1.128.466l5.208 5.209a1.597 1.597 0 0 1 0 2.257l-3.538 3.539-7.464-7.466 3.536-3.54A1.6 1.6 0 0 1 25.197 0z"/></symbol><symbol viewBox="0 0 104.56406 106.2203" id="email" xmlns="http://www.w3.org/2000/svg"><g id="g4" transform="translate(-14.782 -21.78)"><path id="path1" class="icon" transform="translate(8.654) scale(1.17777)" d="M48 44.649l-2.912.38-2.736 1.143-2.608 1.986-2.525 2.912-2.239 3.739-1.746 4.465-1.125 4.628-.375 4.23.19 3.033.572 2.675.952 2.317 1.333 1.96 1.58 1.559 1.69 1.113 1.802.668 1.913.223 2.695-.393 2.836-1.178 2.842-1.95 2.713-2.714 2.408-3.51 1.928-4.341 1.265-4.764.422-4.775-.198-3.009-.593-2.651-.989-2.294-1.384-1.937-1.669-1.538-1.84-1.099-2.015-.659-2.187-.22zm3.656-26.157l5.665.298 5.368.892 5.073 1.487 4.777 2.081 4.384 2.67 3.895 3.254 3.406 3.836 2.917 4.42 1.989 4.142 1.42 4.319.853 4.494.284 4.67-.597 6.606-1.793 6.226-2.988 5.845-4.184 5.463-4.365 4.143-4.565 2.959-4.763 1.775-4.963.592-2.924-.246-2.303-.738-1.728-1.196-1.202-1.617-.527-1.593-.363-2.438-3.229 3.17-3.591 2.478-3.78 1.6-3.79.533-4.114-.61-3.996-1.827-3.568-3.094-2.83-4.406-1.846-5.309-.615-5.8.238-3.729.717-3.73 1.193-3.734 1.672-3.737 2.026-3.506 2.257-3.04 2.489-2.573 2.72-2.108 2.815-1.64 2.775-1.172 2.733-.703 2.693-.235 3.984.533 3.797 1.6 3.445 2.69 2.93 3.802 1.594-7.265h8.39l-6.75 31.453-.615 2.915-.44 2.182-.263 1.45-.088.718.24 1.178.72 1.002 1.061.686 1.26.228 2.871-.715 3.645-2.144 4.787-4.389 3.674-5.666 1.364-3.177.974-3.227.584-3.277.195-3.327-.25-3.85-.752-3.72-1.252-3.592-1.754-3.463-2.25-3.228-2.742-2.889-3.234-2.549-3.727-2.209-4.077-1.784-4.284-1.274-4.493-.765-4.7-.255-5.366.32-5.129.963-4.89 1.604-4.655 2.246-4.28 2.845-3.77 3.401-3.261 3.958-2.751 4.515-2.184 4.879-1.56 5.052-.936 5.225-.312 5.398.312 5.543.936 5.145 1.56 4.746 2.184 4.348 2.774 3.877 3.331 3.335 3.888 2.794 4.444 2.251 4.85 1.733 5.105 1.238 5.36.743 5.615.247 5.892-.258 5.393-.773 4.896-1.289 4.397-1.805 3.888-2.174 3.366-2.396 2.845-2.62 2.323-2.841h8.484l-1.409 2.473-1.837 2.496-2.264 2.52-2.693 2.542-6.363 4.576-7.465 3.51-4.213 1.302-4.623.93-5.033.559-5.443.186-10.002-.668-9.194-2.004-8.138-3.346-6.838-4.693-2.904-2.785-2.522-2.987-2.142-3.189-1.76-3.39L7.418 81.1l-1.23-4.694-.739-4.869-.246-5.045.293-5.651.879-5.517 1.465-5.382 2.05-5.247 3.16-5.98 3.76-5.234 4.361-4.492 4.962-3.747 5.541-2.953 6.101-2.11 6.661-1.265 7.22-.422z" fill="currentColor"/></g></symbol><symbol viewBox="0 0 128 128" id="female" xmlns="http://www.w3.org/2000/svg"><path id="path1" class="icon" fill="currentColor" transform="matrix(4.00012 0 0 4.00012 24.937 0)" d="M9.752 2.83a6.912 6.912 0 0 0-4.894 2.027c-2.704 2.604-2.704 7.011 0 9.715a6.831 6.831 0 0 0 9.714 0c2.705-2.604 2.705-7.01 0-9.715-1.302-1.352-3.054-2.028-4.82-2.028zM9.765 0c2.505 0 5.009.951 6.912 2.854 3.806 3.806 3.806 10.015 0 13.821-1.603 1.503-3.506 2.404-5.41 2.705v3.305h3.606v3.104h-3.605V32H8.063v-6.21H4.757v-3.104h3.306V19.38c-1.903-.3-3.707-1.202-5.209-2.705C-.95 12.87-.95 6.66 2.854 2.855A9.743 9.743 0 0 1 9.765 0z"/></symbol><symbol viewBox="0 0 128 128" id="home" xmlns="http://www.w3.org/2000/svg"><path id="path1" transform="matrix(4 0 0 4 0 11.102)" d="M16.244 6.865l11.673 7.842v11.742H4.089V14.707zM16.213 0L32 10.84v3.576L16.235 3.568 0 14.732V11.15z"/></symbol><symbol viewBox="0 0 128 128" id="logout" xmlns="http://www.w3.org/2000/svg"><path id="path1" transform="matrix(4 0 0 4 6.8 0)" fill="#FFF" d="M8.8 4.5v4.3c-3 1.8-5 5.1-5 8.9 0 5.8 4.7 10.5 10.5 10.5s10.5-4.7 10.5-10.5c0-3.8-2.1-7.2-5.1-9V4.5c5.2 2.1 8.9 7.2 8.9 13.2 0 7.9-6.4 14.3-14.3 14.3S0 25.6 0 17.7c0-5.9 3.6-11 8.8-13.2zM14 0h.4c1.2 0 2.1.9 2.1 2.1V18c0 1.2-.9 2.1-2.1 2.1H14c-1.2 0-2.1-.9-2.1-2.1V2.1C11.9.9 12.9 0 14 0z"/></symbol><symbol viewBox="0 0 128 128" id="male" xmlns="http://www.w3.org/2000/svg"><path id="path1" class="icon" fill="currentColor" transform="matrix(4 0 0 4 0 .6)" d="M10.8 13.4c-4.2 0-7.6 3.4-7.6 7.6 0 4.2 3.4 7.6 7.6 7.6 4.2 0 7.6-3.4 7.6-7.6 0-4.2-3.4-7.6-7.6-7.6zM28 0h4v12l-3.9-1.1v-5l-8.6 8.6c1.3 1.8 2.1 4 2.1 6.4 0 5.9-4.8 10.8-10.8 10.8C4.9 31.7 0 26.9 0 20.9 0 15 4.8 10.1 10.8 10.1c2.5 0 4.8.9 6.7 2.4L26 4h-5L19.9.1H28z"/></symbol><symbol viewBox="0 0 128 128" id="messaging" xmlns="http://www.w3.org/2000/svg"><ellipse cy="64" cx="64" ry="61.875" rx="61.875"/><path id="path1" transform="translate(30 30) scale(2.125)" fill="currentColor" d="M3.1 0h25.8C30.6 0 32 1.3 32 3v17c0 1.6-1.4 3-3.1 3h-7.3L7.5 32l3.3-9.1H3.1c-1.7 0-3.1-1.4-3.1-3V3c0-1.7 1.4-3 3.1-3z"/></symbol><symbol viewBox="0 0 128 128" id="mobile" xmlns="http://www.w3.org/2000/svg"><path id="path1" class="icon" fill="currentColor" transform="matrix(4 0 0 4 30.2 0)" d="M7.5 28.3c-.4 0-.7.4-.7.9v.5c0 .5.3.9.7.9h2c.4 0 .7-.4.7-.9v-.5c0-.5-.3-.9-.7-.9zM1.4 4v22.9h14V4zm4.1-2.8v.1c-.2 0-.3.2-.3.4-.1.2.1.3.3.3h6.3c.2 0 .3-.2.3-.4s-.2-.4-.3-.4zM1.9 0H15c1 0 1.9.9 1.9 2v28c0 1.1-.8 2-1.9 2H1.9c-1 0-1.9-.9-1.9-2V2C0 .9.8 0 1.9 0z"/></symbol><symbol viewBox="0 0 128 128" id="notifications" xmlns="http://www.w3.org/2000/svg"><path id="path1" transform="matrix(4 0 0 4 6.016 0)" d="M11.468 28l.036.073C12.12 29.227 13.23 30 14.497 30s2.378-.773 2.993-1.927l.036-.073zm3.011-26c-2.875.042-5.13.841-6.493 2.313-1.91 2.064-1.73 4.718-1.729 4.744 1.3 8.445-1.25 10.619-1.775 10.968l-.136.081C1.65 22.34 1.781 24.863 2.263 26H26.73c.484-1.155.603-3.666-2.078-5.891l-.086-.05c-.579-.383-3.132-2.557-1.823-11.065-.003 0 .16-2.631-1.739-4.681C19.641 2.841 17.385 2.042 14.48 2zm0-2c3.495.05 6.25 1.071 7.992 2.955 2.558 2.761 2.26 6.25 2.256 6.285-1.145 7.452.891 9.117.911 9.134l.217.135c3.826 3.119 3.386 6.915 2.62 8.487L28.004 28h-8.323l-.02.061C18.892 30.358 16.867 32 14.498 32c-2.37 0-4.394-1.642-5.166-3.939L9.312 28H.992l-.479-1.019c-.76-1.557-1.2-5.353 2.625-8.472l.288-.18v-.001l.003-.004c.103-.107 1.936-1.924.844-9.027-.01-.092-.31-3.582 2.245-6.342C8.263 1.071 11.015.05 14.48 0z"/></symbol><symbol viewBox="0 0 124.8 99.999997" id="patients" xmlns="http://www.w3.org/2000/svg"><g id="g4" transform="matrix(1 0 0 .99384 -1.6 -13.606)"><path id="path1" transform="matrix(3.9 0 0 3.9 1.6 13.69)" d="M20.2 5.1c-2.5 0-4.5 2.5-4.5 5.6 0 2.6 1.2 4.3 2.9 5.3v1.6c-3.6 1.5-6.8 3.1-8 6.7h19.2c-1.2-3.5-4.4-5.3-8-6.6v-1.6c1.7-1 2.9-2.8 2.9-5.2 0-3.3-2.1-5.8-4.5-5.8zm0-1.6c3.4 0 6.1 3.2 6.1 7.2 0 2.4-1 4.5-2.6 5.9 3.2 1.3 6.3 3.3 7.6 7.1l.7 2.1H8.3l.7-2.1c1.3-3.8 4.4-5.7 7.6-7.1-1.7-1.4-2.6-3.5-2.6-5.9.1-4 2.8-7.2 6.2-7.2zM11.8 0c2 0 3.7 1.1 4.8 2.8-.5.3-.9.6-1.3.9-.8-1.3-2.1-2.2-3.6-2.2-2.5 0-4.5 2.5-4.5 5.6 0 2.6 1.2 4.3 2.9 5.3V14c-3.6 1.5-6.8 3.1-8 6.7h6.5c-.3.5-.6 1-.8 1.6H0l.7-2.1c1.3-3.8 4.4-5.7 7.6-7.1-1.7-1.4-2.6-3.5-2.6-5.9.1-4 2.8-7.2 6.1-7.2z" fill="currentColor"/></g></symbol><symbol viewBox="0 0 128 128" id="print" xmlns="http://www.w3.org/2000/svg"><ellipse cy="64" cx="64" ry="61.875" rx="61.875"/><path id="path1" class="icon" transform="translate(30 30) scale(2.125)" fill="currentColor" d="M10 24h10v2H10zm0-4h12v2H10zm-2-2v12h16V18zm20-7.6c-.9 0-1.6.7-1.6 1.6 0 .9.7 1.6 1.6 1.6.9 0 1.6-.7 1.6-1.6 0-.9-.7-1.6-1.6-1.6zM2 8h28c1.1 0 2 .9 2 2v12c0 1.1-.9 2-2 2h-4v6c0 1.1-.9 2-2 2H8c-1.1 0-2-.9-2-2v-6H2c-1.1 0-2-.9-2-2V10c0-1.1.9-2 2-2zm6-8h16c1.1 0 2 .9 2 2v4h-2V2H8v4H6V2c0-1.1.9-2 2-2z"/></symbol><symbol viewBox="0 0 128 128" id="right-chevron" xmlns="http://www.w3.org/2000/svg"><path id="path1" class="icon" fill="currentColor" transform="translate(41.01 30) scale(2.125)" d="M0 0h8.554l8.693 10.71.074.089.039-.046 4.277 5.269-4.277 5.27L8.666 32H.111l9.867-12.152 3.065-3.779-.073-.091-3.106-3.824z"/></symbol><symbol viewBox="0 0 128 128" id="save" xmlns="http://www.w3.org/2000/svg"><path id="path1" transform="matrix(4 0 0 4 0 5.396)" fill="#FFF" d="M29.043 18.955l-5.107 5.108-2.417-2.421-.943.941 3.36 3.359 6.05-6.045zm-3.762-3.09c3.694 0 6.719 3.025 6.719 6.718 0 3.694-3.025 6.719-6.719 6.719-3.693 0-6.718-3.025-6.718-6.719 0-3.693 3.025-6.718 6.718-6.718zM16.516 0h3.674v8.118h-3.674zM2.519 0h4.269v7.838c0 1.16.94 2.1 2.1 2.1h10.707a2.1 2.1 0 0 0 2.1-2.1V0h2.893l3.895 3.895v11.293a8.008 8.008 0 0 0-3.201-.667c-4.446 0-8.062 3.616-8.062 8.062 0 2.185.876 4.167 2.293 5.62H2.519A2.519 2.519 0 0 1 0 25.684V2.519A2.52 2.52 0 0 1 2.519 0z"/></symbol><symbol viewBox="0 0 100 100" id="settings" xmlns="http://www.w3.org/2000/svg"><g id="g4" transform="matrix(.78125 0 0 .81095 0 -1.9)"><path id="path1" transform="matrix(4 0 0 4 0 2.344)" d="M16.062 9.278a6.26 6.26 0 0 0-6.285 6.286 6.258 6.258 0 0 0 6.285 6.285c3.492 0 6.285-2.893 6.285-6.285a6.26 6.26 0 0 0-6.285-6.286zM11.473 0c.898 2.295 2.793 4.49 5.886 3.891 1.696-.299 2.694-1.796 3.093-3.592 2.893.499 4.29 1.198 6.485 3.393-3.293 3.192-.799 9.777 4.59 7.981.598 2.394.698 5.487-.1 7.781-3.892-.498-6.885 1.098-6.187 5.188.1.798 1.497 2.295 1.497 2.295s-2.494 3.192-6.186 3.891c-.598-4.789-8.38-4.789-8.978 0-3.392-.599-4.59-1.397-6.685-3.592 3.492-2.893.6-9.577-4.589-7.682C-.1 17.16-.1 13.967.3 11.573 5.09 12.77 7.981 8.48 5.986 5.088l-.998-.997S6.884 1.497 11.473 0z"/></g></symbol><symbol viewBox="0 0 128 128" id="tick" xmlns="http://www.w3.org/2000/svg"><ellipse cy="64" cx="64" ry="64" rx="64"/><path id="path1" transform="matrix(2.75 0 0 2.75 20 34.466)" fill="currentColor" d="M29.404 0L32 3.586 8.372 21.479l-2.598-3.584.002-.002L0 9.911l3.508-2.654 5.775 7.979z"/></symbol><symbol viewBox="0 0 128 128" id="user-female" xmlns="http://www.w3.org/2000/svg"><path id="path1" class="icon" fill="currentColor" transform="matrix(4 0 0 4 0 2)" d="M14.2 0c1.1 0 1.9.2 1.9.2 5.8-.6 6.8 9.6 6.8 9.6 0 .7 2.1 7.2 2.1 7.2.8 1.5-1.5 1.7-1.5 1.7.8 1.2-2.3 1.9-3.3 2.1h-.1c1 3.2 7.6 4.9 7.6 4.9 2.6.6 4.3 3 4.3 3V31H0v-3.5c1.3-1.5 3.2-1.8 3.2-1.8 5.8-1.5 7.3-3.9 7.7-4.9-.9 0-2.2-.5-2.2-.5-2-.9-1.7-1.7-1.7-1.7.3-.1.4-.4.4-.4-.7.1-1.2-.1-1.2-.1-1.3-.4-.5-1.7-.5-1.7 1.9-4.7 2.1-7.6 2.1-7.6.1-2.5.5-4.2.5-4.2C9.6.8 12.4 0 14.2 0z"/></symbol><symbol viewBox="0 0 128 128" id="user-male" xmlns="http://www.w3.org/2000/svg"><path id="path1" class="icon" fill="currentColor" transform="matrix(4 0 0 4 0 5.216)" d="M14.345 0c0 .1.401 0 1.003 0 1.103 0 2.809.201 3.611 1.404 0 0 7.223.803 3.01 8.427 0 0 1.003.1.602 1.203 0 0-.402 2.107-1.004 2.408 0 0 0 3.009-2.006 5.317v.1c.502 3.11 5.718 4.313 5.718 4.313C28.79 24.075 32 25.981 32 25.981v3.411H0v-4.314c.1-.401 5.417-2.106 5.417-2.106 2.708-.702 3.812-1.304 3.812-1.304 0-.201.501-.502.501-.502 1.204-.2 1.806-1.705 2.007-2.508-.201-.2-1.605-2.006-1.706-5.417 0 0-.501-.2-1.003-2.808 0 0-.1-.803.803-.903 0 0-1.204-3.912-.301-6.32 0 0 1.404-2.608 4.815-3.21z"/></symbol></svg>