<?xml version="1.0" encoding="UTF-8" standalone="no"?><svg xmlns="http://www.w3.org/2000/svg" xmlns:xlink="http://www.w3.org/1999/xlink"><symbol viewBox="0 0 128 100" id="appointments" xmlns="http://www.w3.org/2000/svg"><path d="M64 58.703c2 .683 3.6 1.707 5.2 2.39 1.6.682 2.8 1.706 4 2.388 1.2.683 1.6 1.707 2.4 2.73.4 1.024.8 2.048.8 3.072 0 2.39-.8 4.096-2.8 5.461-2 1.365-4.8 2.048-8.4 2.048-4 0-6.8-.683-8.8-2.048-2-1.365-2.8-3.413-2.8-5.802 0-1.024.4-2.048.8-3.072s1.2-1.706 2-2.73c.8-.683 2-1.707 3.6-2.39.4-.34 2.4-1.023 4-2.047zm.4-22.184c1.6 0 2.8 0 4 .341 1.2.341 2.4.683 3.2 1.365.8.683 1.6 1.365 2 2.048.4 1.024.8 1.707.8 3.072 0 2.047-.8 3.754-2.4 5.46-1.6 1.707-4 3.072-6.8 4.437-1.6-.682-3.2-1.706-4.4-2.389-1.2-.682-2.4-1.365-3.2-2.389-.8-.682-1.6-1.706-2-2.389-.4-.683-.4-1.706-.4-2.73 0-2.048.8-3.755 2.4-5.12 1.2-1.024 3.6-1.706 6.8-1.706zm.8-5.12c-3.2 0-5.6.342-8 1.024-2.4.683-4 1.365-5.6 2.73-1.6 1.024-2.4 2.39-3.2 4.096-.8 1.365-1.2 3.072-1.2 4.778 0 1.365.4 2.73.8 3.755.4 1.023 1.2 2.389 2 3.413.8 1.023 2 2.047 3.6 2.73 1.2 1.024 2.8 1.706 4.8 2.389-2 1.024-4 1.706-5.6 2.73-1.6 1.024-2.8 2.048-4 3.072-1.2 1.024-2 2.39-2.4 3.754-.4 1.365-.8 2.73-.8 4.437 0 2.048.4 3.754 1.2 5.12.8 1.365 2 2.73 3.6 3.754s3.6 1.706 6 2.389c2.4.683 4.8.683 8 .683s6-.342 8.4-1.024c2.4-.683 4.4-1.366 6-2.73 1.6-1.025 2.8-2.39 4-4.096.8-1.707 1.2-3.413 1.2-5.802 0-1.366-.4-2.73-.8-4.096-.4-1.365-1.6-2.389-2.4-3.413-1.2-1.024-2.4-2.048-4-3.072-1.6-1.023-3.6-1.706-5.6-2.73 1.6-.682 3.2-1.706 4.8-2.73l3.6-3.072c.8-1.024 1.6-2.048 2-3.413.4-1.365.8-2.389.8-3.754 0-1.707-.4-3.072-.8-4.437-.8-1.365-1.6-2.73-3.2-3.754-1.2-1.024-3.2-1.707-5.2-2.39-2.8 0-5.2-.34-8-.34zm-50-22.184h9.6v11.604c0 3.413 3.2 6.485 7.2 6.485s7.6-2.73 7.6-6.485V9.215H88v11.604c0 3.413 3.2 6.485 7.6 6.485 4 0 7.6-2.73 7.6-6.485V9.215h9.6c8.4 0 15.2 5.802 15.2 12.97V87.03c0 7.167-6.8 12.969-15.2 12.969H15.2C6.8 100 0 94.198 0 87.03V22.185C0 15.017 6.8 9.215 15.2 9.215zM95.6 0c2 0 3.6 1.365 3.6 3.072v15.7c0 1.706-1.6 3.071-3.6 3.071S92 20.478 92 18.771v-15.7C91.6 1.366 93.6 0 95.6 0zM32 0c2 0 3.6 1.365 3.6 3.072v15.7c0 1.706-1.6 3.071-3.6 3.071-2.4.341-4-1.024-4-2.73V3.072C28 1.365 29.6 0 32 0z" fill="currentColor"/></symbol><symbol viewBox="0 0 128 100" id="billing" xmlns="http://www.w3.org/2000/svg"><path d="M35.734 67.381H128v27.386c0 2.886-2.204 5.233-4.924 5.233H40.655c-2.716 0-4.92-2.347-4.92-5.233zm-2.884-8.698v36.084c0 .863.16 1.68.392 2.466l-.92.629c-2.28 1.564-5.328.867-6.8-1.565L11.554 73.282zm7.805-17.642h82.421c2.72 0 4.924 2.343 4.924 5.233v8.728H35.734v-8.728c0-2.89 2.205-5.233 4.92-5.233zm48.428-20.91L99.92 37.98H63.05zM74.283 0c1.58.034 3.116.88 4.036 2.398l4.448 7.329L5.238 62.879.786 55.55c-1.472-2.427-.816-5.666 1.464-7.23L71.515.838A4.664 4.664 0 0 1 74.283 0z" fill="currentColor"/></symbol><symbol viewBox="0 0 124.8 99.999997" id="patients" xmlns="http://www.w3.org/2000/svg"><path d="M78.78 19.767c-9.75 0-17.55 9.69-17.55 21.706 0 10.077 4.68 16.667 11.31 20.543v6.201c-14.04 5.814-26.52 12.016-31.2 25.969h74.88c-4.68-13.566-17.16-20.543-31.2-25.581v-6.202c6.63-3.876 11.31-10.853 11.31-20.155 0-12.79-8.19-22.48-17.55-22.48zm0-6.201c13.26 0 23.79 12.403 23.79 27.907 0 9.302-3.9 17.442-10.14 22.868 12.48 5.039 24.57 12.79 29.64 27.52L124.8 100H32.37l2.73-8.14c5.07-14.728 17.16-22.093 29.64-27.519-6.63-5.426-10.14-13.566-10.14-22.868.39-15.504 10.92-27.907 24.18-27.907zM46.02 0c7.8 0 14.43 4.264 18.72 10.853-1.95 1.163-3.51 2.325-5.07 3.488-3.12-5.039-8.19-8.527-14.04-8.527-9.75 0-17.55 9.69-17.55 21.705 0 10.078 4.68 16.667 11.31 20.543v6.202c-14.04 5.814-26.52 12.015-31.2 25.969h25.35c-1.17 1.938-2.34 3.876-3.12 6.201H0l2.73-8.14C7.8 63.567 19.89 56.203 32.37 50.776 25.74 45.35 22.23 37.21 22.23 27.907 22.62 12.403 33.15 0 46.02 0z" fill="currentColor"/></symbol><symbol viewBox="0 0 128 128" id="settings" xmlns="http://www.w3.org/2000/svg"><path fill="#FFF" d="M64.25 39.456A25.037 25.037 0 0 0 39.11 64.6a25.034 25.034 0 0 0 25.14 25.14c13.968 0 25.14-11.572 25.14-25.14a25.037 25.037 0 0 0-25.14-25.144zM45.893 2.344c3.592 9.18 11.172 17.96 23.545 15.564 6.784-1.196 10.776-7.184 12.372-14.368 11.572 1.996 17.16 4.792 25.94 13.572-13.172 12.768-3.196 39.108 18.356 31.924 2.392 9.576 2.792 21.948-.4 31.124-15.564-1.992-27.536 4.392-24.744 20.752.4 3.192 5.988 9.18 5.988 9.18s-9.976 12.768-24.744 15.564c-2.392-19.156-33.52-19.156-35.913 0-13.568-2.396-18.36-5.588-26.74-14.368C33.521 99.716 21.95 72.98 1.197 80.56c-1.596-9.576-1.596-22.348 0-31.924 19.156 4.788 30.728-12.372 22.748-25.94l-3.992-3.988s7.584-10.376 25.94-16.364z"/></symbol></svg>