<?xml version="1.0" encoding="utf-8"?>
<svg xmlns="http://www.w3.org/2000/svg" height="128" width="128" viewBox="0 0 128 128">
  <g>
    <path id="path1" transform="rotate(0,64,64) translate(1.6,1.6) scale(3.9,3.9)" d="M14.399994,8.0999985L17.5,8.0999985 17.5,14.5 23.899994,14.5 23.899994,17.599998 17.5,17.599998 17.5,24 14.399994,24 14.399994,17.599998 8,17.599998 8,14.5 14.399994,14.5z M16,2.5C8.5,2.5 2.5,8.5 2.5,16 2.5,23.5 8.6000061,29.5 16,29.5 23.5,29.5 29.5,23.400002 29.5,16 29.5,8.5 23.5,2.5 16,2.5z M16,0C24.799988,0 32,7.1999969 32,16 32,24.800003 24.799988,32 16,32 7.1999817,32 0,24.800003 0,16 0,7.1999969 7.1999817,0 16,0z" />
  </g>
</svg>

