<?xml version="1.0" encoding="UTF-8" standalone="no"?>
<svg
   xmlns:dc="http://purl.org/dc/elements/1.1/"
   xmlns:cc="http://creativecommons.org/ns#"
   xmlns:rdf="http://www.w3.org/1999/02/22-rdf-syntax-ns#"
   xmlns:svg="http://www.w3.org/2000/svg"
   xmlns="http://www.w3.org/2000/svg"
   xmlns:sodipodi="http://sodipodi.sourceforge.net/DTD/sodipodi-0.dtd"
   xmlns:inkscape="http://www.inkscape.org/namespaces/inkscape"
   height="100"
   width="128"
   viewBox="0 0 128 100"
   id="svg2"
   version="1.1"
   inkscape:version="0.91 r13725"
   sodipodi:docname="appointments.svg">
  <metadata
     id="metadata11">
    <rdf:RDF>
      <cc:Work
         rdf:about="">
        <dc:format>image/svg+xml</dc:format>
        <dc:type
           rdf:resource="http://purl.org/dc/dcmitype/StillImage" />
        <dc:title></dc:title>
      </cc:Work>
    </rdf:RDF>
  </metadata>
  <defs
     id="defs9" />
  <sodipodi:namedview
     pagecolor="#ffffff"
     bordercolor="#666666"
     borderopacity="1"
     objecttolerance="10"
     gridtolerance="10"
     guidetolerance="10"
     inkscape:pageopacity="0"
     inkscape:pageshadow="2"
     inkscape:window-width="1920"
     inkscape:window-height="1137"
     id="namedview7"
     showgrid="false"
     fit-margin-top="0"
     fit-margin-left="0"
     fit-margin-right="0"
     fit-margin-bottom="0"
     inkscape:zoom="1.84375"
     inkscape:cx="-28.474576"
     inkscape:cy="58.600005"
     inkscape:window-x="-8"
     inkscape:window-y="-8"
     inkscape:window-maximized="1"
     inkscape:current-layer="svg2" />
  <g
     id="g4"
     transform="matrix(1,0,0,0.85324232,0,-4.6075098)">
    <path
       id="path1"
       transform="matrix(4,0,0,4,0,5.4000015)"
       d="m 16,17.199994 c 0.5,0.200005 0.900024,0.5 1.299988,0.700005 0.400024,0.199997 0.700012,0.5 1,0.699997 0.300049,0.200004 0.400024,0.5 0.600036,0.800003 C 19,19.699994 19.100037,19.999997 19.100037,20.3 c 0,0.699997 -0.200013,1.199997 -0.700013,1.599999 -0.5,0.400001 -1.200012,0.599998 -2.100036,0.599998 -1,0 -1.699951,-0.199997 -2.199951,-0.599998 -0.5,-0.400002 -0.700013,-1 -0.700013,-1.700005 0,-0.299995 0.09998,-0.599998 0.200013,-0.899994 0.09997,-0.300003 0.299987,-0.5 0.5,-0.800003 0.199951,-0.199997 0.5,-0.5 0.899963,-0.699997 0.100037,-0.100006 0.600037,-0.300003 1,-0.600006 z m 0.100037,-6.499998 c 0.399963,0 0.699951,0 1,0.100005 0.299987,0.1 0.599975,0.199997 0.799987,0.399994 0.200013,0.200005 0.399964,0.400002 0.5,0.600006 0.09998,0.299996 0.200013,0.5 0.200013,0.899994 0,0.600006 -0.200013,1.100006 -0.600037,1.600006 -0.399963,0.5 -1,0.899994 -1.700012,1.299996 C 15.900024,15.4 15.5,15.099997 15.200012,14.9 c -0.299988,-0.200005 -0.599975,-0.400002 -0.799988,-0.700005 -0.200012,-0.199997 -0.400024,-0.5 -0.5,-0.699997 -0.100036,-0.199997 -0.100036,-0.5 -0.100036,-0.800003 0,-0.599998 0.200012,-1.099998 0.600036,-1.5 0.299988,-0.299995 0.899964,-0.499999 1.700013,-0.499999 z m 0.199951,-1.4999999 c -0.799988,0 -1.399964,0.1000061 -2,0.300003 -0.599976,0.199997 -1,0.4000015 -1.399964,0.8000029 C 12.5,10.599998 12.299988,10.999998 12.100037,11.499998 11.900024,11.9 11.799988,12.4 11.799988,12.9 c 0,0.400001 0.100036,0.799995 0.200012,1.099998 0.100037,0.300003 0.299988,0.699997 0.5,1 0.200012,0.300003 0.5,0.599999 0.900024,0.800003 0.299988,0.299995 0.700013,0.499999 1.200013,0.699996 -0.5,0.300003 -1,0.5 -1.400025,0.800003 -0.400024,0.299996 -0.700012,0.599999 -1,0.899994 -0.299988,0.300003 -0.5,0.700005 -0.599975,1.100006 -0.100037,0.399994 -0.200013,0.799996 -0.200013,1.299996 0,0.599998 0.09998,1.099998 0.299988,1.5 0.200012,0.400001 0.5,0.799995 0.900025,1.099998 0.399963,0.300003 0.899963,0.5 1.5,0.699997 0.599975,0.200012 1.199951,0.200012 2,0.200012 0.799987,0 1.5,-0.100006 2.099975,-0.300003 0.599976,-0.199997 1.099976,-0.400009 1.5,-0.800003 C 20.100037,22.699994 20.400024,22.3 20.700012,21.8 20.900024,21.3 21,20.8 21,20.099996 21,19.699994 20.900024,19.3 20.799988,18.899999 c -0.09998,-0.400002 -0.399964,-0.700005 -0.599976,-1 -0.299988,-0.300003 -0.599975,-0.599999 -1,-0.900002 -0.400024,-0.300003 -0.900024,-0.5 -1.400024,-0.800003 C 18.200012,15.999998 18.600037,15.699995 19,15.4 c 0.299988,-0.300003 0.600037,-0.599999 0.900024,-0.900002 0.200013,-0.300003 0.399964,-0.599998 0.5,-1 C 20.5,13.099997 20.600037,12.800001 20.600037,12.4 20.600037,11.9 20.5,11.499998 20.400024,11.099997 20.200012,10.699996 20,10.300002 19.600037,9.9999991 c -0.300049,-0.300003 -0.800049,-0.5 -1.300049,-0.6999969 -0.699951,0 -1.299988,-0.1000061 -2,-0.1000061 z M 3.7999878,2.6999965 l 2.4000244,0 0,3.4000011 c 0,1 0.7999878,1.9000015 1.7999878,1.9000015 1,0 1.9000244,-0.800003 1.9000244,-1.9000015 l 0,-3.4000011 12.0999756,0 0,3.4000011 c 0,1 0.799988,1.9000015 1.900024,1.9000015 1,0 1.899964,-0.800003 1.899964,-1.9000015 l 0,-3.4000011 2.400024,0 C 30.299988,2.6999965 32,4.4000011 32,6.4999991 L 32,25.499997 C 32,27.600003 30.299988,29.3 28.200012,29.3 l -24.4000242,0 C 1.7000122,29.3 0,27.600003 0,25.499997 L 0,6.4999991 C 0,4.4000011 1.7000122,2.6999965 3.7999878,2.6999965 Z M 23.900024,0 c 0.5,-7.3009687e-8 0.899964,0.40000142 0.899964,0.90000154 l 0,4.59999756 c 0,0.5 -0.399964,0.9000015 -0.899964,0.9000015 C 23.400024,6.4000006 23,5.9999991 23,5.4999991 L 23,0.90000154 C 22.900024,0.40000142 23.400024,-7.3009687e-8 23.900024,0 Z M 8,0 c 0.5,-7.3009687e-8 0.9000244,0.40000142 0.9000244,0.90000154 l 0,4.59999756 C 8.9000244,5.9999991 8.5,6.4000006 8,6.4000006 7.4000244,6.4999991 7,6.0999976 7,5.5999976 L 7,0.90000154 C 7,0.40000142 7.4000244,-7.3009687e-8 8,0 Z"
       inkscape:connector-curvature="0"
       style="fill:currentColor" />
  </g>
</svg>
