<?xml version="1.0" encoding="UTF-8" standalone="no"?>
<svg
   xmlns:dc="http://purl.org/dc/elements/1.1/"
   xmlns:cc="http://creativecommons.org/ns#"
   xmlns:rdf="http://www.w3.org/1999/02/22-rdf-syntax-ns#"
   xmlns:svg="http://www.w3.org/2000/svg"
   xmlns="http://www.w3.org/2000/svg"
   xmlns:sodipodi="http://sodipodi.sourceforge.net/DTD/sodipodi-0.dtd"
   xmlns:inkscape="http://www.inkscape.org/namespaces/inkscape"
   viewBox="0 0 104.56406 106.2203"
   id="svg2"
   version="1.1"
   inkscape:version="0.91 r13725"
   sodipodi:docname="email.svg"
   width="104.56406"
   height="106.2203">
  <metadata
     id="metadata11">
    <rdf:RDF>
      <cc:Work
         rdf:about="">
        <dc:format>image/svg+xml</dc:format>
        <dc:type
           rdf:resource="http://purl.org/dc/dcmitype/StillImage" />
        <dc:title></dc:title>
      </cc:Work>
    </rdf:RDF>
  </metadata>
  <defs
     id="defs9" />
  <sodipodi:namedview
     pagecolor="#ffffff"
     bordercolor="#666666"
     borderopacity="1"
     objecttolerance="10"
     gridtolerance="10"
     guidetolerance="10"
     inkscape:pageopacity="0"
     inkscape:pageshadow="2"
     inkscape:window-width="1920"
     inkscape:window-height="1137"
     id="namedview7"
     showgrid="false"
     fit-margin-top="0"
     fit-margin-left="0"
     fit-margin-right="0"
     fit-margin-bottom="0"
     inkscape:zoom="1.84375"
     inkscape:cx="49.217981"
     inkscape:cy="64"
     inkscape:window-x="-8"
     inkscape:window-y="-8"
     inkscape:window-maximized="1"
     inkscape:current-layer="svg2" />
  <g
     id="g4"
     transform="translate(-14.782019,-21.779703)"
     style="stroke:none">
    <path
       id="path1"
       class="icon"
       transform="matrix(1.1777718,0,0,1.1777718,8.6539254,0)"
       d="m 48,44.648544 -2.912109,0.38086 -2.736329,1.142578 -2.607421,1.986328 -2.525391,2.912109 -2.238281,3.738282 -1.746094,4.464843 -1.125,4.628907 -0.375,4.230468 0.19043,3.032227 0.571289,2.674805 0.952148,2.317382 1.333008,1.959961 1.579102,1.558594 1.690429,1.113281 1.801758,0.667969 1.913086,0.222656 2.695312,-0.392578 2.835938,-1.177734 2.841793,-1.951172 2.712894,-2.712891 2.4082,-3.509765 1.927738,-4.341797 1.265621,-4.763672 0.421879,-4.775391 -0.197758,-3.008789 -0.593261,-2.651367 -0.98877,-2.293945 -1.384274,-1.936524 -1.66846,-1.538086 -1.841309,-1.098632 -2.01416,-0.65918 L 48,44.648544 Z m 3.65625,-26.15625 5.664551,0.297364 5.368652,0.892089 5.072754,1.486817 4.776855,2.081543 4.384278,2.670412 3.895019,3.25342 3.405762,3.836426 2.916504,4.419429 1.989258,4.142578 1.420898,4.31836 0.852539,4.49414 0.28418,4.669922 -0.597656,6.606446 -1.792969,6.225586 -2.988281,5.844726 -4.183594,5.463867 -4.365234,4.142578 -4.564454,2.958985 -4.763671,1.77539 -4.962891,0.591797 -2.923832,-0.246093 -2.302731,-0.738282 -1.728519,-1.195312 -1.201168,-1.617188 -0.527348,-1.59375 -0.363277,-2.4375 -3.228519,3.169922 -3.591794,2.478516 -3.779296,1.599609 -3.791016,0.533203 -4.113281,-0.609375 -3.996094,-1.828125 -3.568361,-3.09375 -2.830077,-4.40625 -1.845703,-5.308593 -0.615234,-5.800782 0.23877,-3.728027 0.716308,-3.730957 1.193848,-3.733887 1.671386,-3.736816 2.025879,-3.505371 2.257325,-3.039551 2.488769,-2.573731 2.720215,-2.10791 2.81543,-1.640621 2.774414,-1.171875 2.733398,-0.703125 2.692383,-0.234379 3.984371,0.533207 3.796879,1.599606 3.445309,2.689453 2.929691,3.802734 1.59375,-7.265625 8.390625,0 -6.75,31.453125 -0.615234,2.915039 -0.439457,2.182618 -0.263672,1.450195 -0.08789,0.717773 0.240231,1.177735 0.720706,1.001953 1.060547,0.685547 1.259766,0.228515 2.871094,-0.714843 3.644531,-2.144532 4.787109,-4.388672 3.673828,-5.666015 1.36377,-3.177246 0.974121,-3.227051 0.584473,-3.276856 0.194824,-3.32666 -0.250488,-3.849609 -0.751465,-3.720703 -1.252442,-3.591797 -1.753418,-3.462891 -2.25,-3.228511 -2.742187,-2.888672 -3.234375,-2.54883 -3.726563,-2.208987 -4.07666,-1.784177 -4.284671,-1.274413 -4.492676,-0.76465 -4.70068,-0.254885 -5.365723,0.320803 -5.128418,0.962404 -4.891113,1.604002 -4.653809,2.245604 -4.280273,2.84473 -3.770508,3.401367 -3.260742,3.958008 -2.750977,4.514645 -2.184082,4.879394 -1.560059,5.052246 -0.936035,5.225098 -0.312011,5.397949 0.312011,5.542969 0.936035,5.144531 1.560059,4.746094 2.184082,4.347656 2.774415,3.877442 3.331054,3.335449 3.887696,2.793457 4.444335,2.251465 4.850098,1.73291 5.104981,1.237793 5.359863,0.74268 5.614746,0.24755 5.891602,-0.25781 5.393554,-0.77344 4.895508,-1.289058 4.397461,-1.804688 3.887695,-2.173828 3.366211,-2.396484 2.844727,-2.619141 2.323242,-2.841797 8.484375,0 -1.40918,2.472657 -1.836914,2.496093 -2.264648,2.519532 -2.692383,2.542968 -6.363281,4.576176 -7.464844,3.50976 -4.212891,1.30225 -4.623047,0.93017 -5.033203,0.55811 -5.443359,0.18603 -10.001953,-0.66796 -9.19336,-2.00391 -8.138673,-3.3457 L 18.46875,97.968857 15.565429,95.184189 13.042968,92.197372 10.901366,89.008408 9.140625,85.617294 7.4179687,81.099716 6.1875,76.406357 5.4492187,71.537216 5.203125,66.492294 5.4960937,60.840927 6.375,55.324326 7.8398437,49.94249 9.890625,44.695419 l 3.159668,-5.979488 3.760254,-5.235352 4.36084,-4.491212 4.961425,-3.747073 5.541504,-2.953125 6.101075,-2.109375 6.660644,-1.265625 7.220215,-0.421875 z"
       inkscape:connector-curvature="0"
       style="fill:currentColor;stroke:none" />
  </g>
</svg>
