<?xml version="1.0" encoding="utf-8"?>
<svg xmlns="http://www.w3.org/2000/svg" height="128" width="128" viewBox="0 0 128 128">
  <g>
    <path id="path1" transform="rotate(0,64,64) translate(0,1.47199630737305) scale(4,4)  " fill="#FFFFFF" d="M9.5189972,7.3780194C8.3389893,7.3780194,7.3779907,8.339018,7.3779907,9.5190097L7.3779907,22.499019C7.3779907,23.680017,8.3389893,24.641015,9.5189972,24.641015L18.442001,24.641015 21.362,27.78399 24.506989,24.641015 27.718002,24.641015C28.899002,24.641015,29.858994,23.680017,29.858994,22.499019L29.858994,9.5190097C29.858994,8.339018,28.899002,7.3780194,27.718002,7.3780194z M9.5189972,5.2380052L27.718002,5.2380052C30.082993,5.2380052,32,7.1540204,32,9.5190097L32,22.499019C32,24.864007,30.082993,26.780999,27.718002,26.780999L25.987991,26.780999 21.562988,31.264001 17.138992,26.780999 9.5189972,26.780999C7.1539917,26.780999,5.2369995,24.864007,5.2369995,22.499019L5.2369995,9.5190097C5.2369995,7.1540204,7.1539917,5.2380052,9.5189972,5.2380052z M4.2819977,0L22.65799,0C24.315994,-8.5328793E-08,25.748993,0.94302335,26.46199,2.3189999L4.5499878,2.3189999C3.2200012,2.3189996,2.1409912,3.3970023,2.1409912,4.7290026L2.1409912,21.010005C0.86199951,20.270015,0,18.891017,0,17.307002L0,4.2820121C0,1.9170222,1.9169922,-8.5328793E-08,4.2819977,0z" />
  </g>
</svg>

