<?xml version="1.0" encoding="UTF-8" standalone="no"?>
<svg
   xmlns:dc="http://purl.org/dc/elements/1.1/"
   xmlns:cc="http://creativecommons.org/ns#"
   xmlns:rdf="http://www.w3.org/1999/02/22-rdf-syntax-ns#"
   xmlns:svg="http://www.w3.org/2000/svg"
   xmlns="http://www.w3.org/2000/svg"
   xmlns:sodipodi="http://sodipodi.sourceforge.net/DTD/sodipodi-0.dtd"
   xmlns:inkscape="http://www.inkscape.org/namespaces/inkscape"
   height="100"
   width="124.8"
   viewBox="0 0 124.8 99.999997"
   id="svg2"
   version="1.1"
   inkscape:version="0.91 r13725"
   sodipodi:docname="patients.svg">
  <metadata
     id="metadata11">
    <rdf:RDF>
      <cc:Work
         rdf:about="">
        <dc:format>image/svg+xml</dc:format>
        <dc:type
           rdf:resource="http://purl.org/dc/dcmitype/StillImage" />
        <dc:title></dc:title>
      </cc:Work>
    </rdf:RDF>
  </metadata>
  <defs
     id="defs9" />
  <sodipodi:namedview
     pagecolor="#ffffff"
     bordercolor="#666666"
     borderopacity="1"
     objecttolerance="10"
     gridtolerance="10"
     guidetolerance="10"
     inkscape:pageopacity="0"
     inkscape:pageshadow="2"
     inkscape:window-width="1920"
     inkscape:window-height="1137"
     id="namedview7"
     showgrid="false"
     inkscape:zoom="1.84375"
     inkscape:cx="-126.31864"
     inkscape:cy="50.179323"
     inkscape:window-x="-8"
     inkscape:window-y="-8"
     inkscape:window-maximized="1"
     inkscape:current-layer="svg2"
     fit-margin-top="0"
     fit-margin-left="0"
     fit-margin-right="0"
     fit-margin-bottom="0" />
  <g
     id="g4"
     transform="matrix(1,0,0,0.99383816,-1.6,-13.605642)">
    <path
       id="path1"
       transform="matrix(3.9,0,0,3.9,1.6,13.689998)"
       d="m 20.199982,5.1000088 c -2.5,0 -4.5,2.500001 -4.5,5.6000092 0,2.599976 1.200012,4.299989 2.900024,5.299989 l 0,1.600008 c -3.600006,1.5 -6.800018,3.100007 -8,6.699984 l 19.199982,0 c -1.199982,-3.500002 -4.399994,-5.29999 -8,-6.599977 l 0,-1.600008 c 1.700012,-1 2.899994,-2.80002 2.899994,-5.200015 0,-3.2999892 -2.099976,-5.7999902 -4.5,-5.7999902 z m 0,-1.6000068 c 3.400024,-2e-7 6.100006,3.2000134 6.100006,7.200016 0,2.399995 -1,4.500002 -2.600006,5.899996 3.200012,1.299989 6.300018,3.299989 7.600006,7.10001 L 32,25.800001 l -23.7000122,0 L 9,23.700024 c 1.299988,-3.800021 4.399994,-5.700015 7.600006,-7.10001 C 14.899994,15.20002 14,13.100013 14,10.700018 14.100006,6.7000154 16.799988,3.5000018 20.199982,3.500002 Z M 11.799988,0 c 2,1.4729449e-7 3.700012,1.1000068 4.800018,2.7999893 -0.5,0.3000183 -0.900024,0.6000064 -1.300018,0.9000249 C 14.5,2.3999952 13.199982,1.5000008 11.699982,1.5000009 c -2.5000003,-1e-7 -4.5000003,2.5000013 -4.5000003,5.6000089 0,2.600007 1.2000122,4.2999892 2.9000243,5.2999902 l 0,1.600007 c -3.600006,1.5 -6.8000182,3.100007 -7.9999999,6.700015 l 6.5,0 C 8.2999878,21.200022 8,21.700024 7.7999878,22.299999 L 0,22.299999 0.69998169,20.200022 C 2,16.400001 5.1000061,14.500007 8.2999878,13.100013 6.6000061,11.700018 5.6999817,9.6000107 5.6999817,7.2000159 5.7999878,3.200014 8.5,1.4729449e-7 11.799988,0 Z"
       inkscape:connector-curvature="0"
       style="fill:currentColor" />
  </g>
</svg>
