<?xml version="1.0" encoding="utf-8"?>
<svg xmlns="http://www.w3.org/2000/svg" height="128" width="128" viewBox="0 0 128 128">
  <g>
    <path id="path1" transform="rotate(0,64,64) translate(0,5.39599609375) scale(4,4)  " fill="#FFFFFF" d="M29.042969,18.955L23.935974,24.063003 21.518982,21.642006 20.575989,22.583 23.935974,25.942001 29.985962,19.897001z M25.281006,15.865003C28.974976,15.865003 32,18.890005 32,22.583 32,26.277 28.974976,29.302002 25.281006,29.302002 21.588013,29.302002 18.562988,26.277 18.562988,22.583 18.562988,18.890005 21.588013,15.865003 25.281006,15.865003z M16.515991,0L20.190002,0 20.190002,8.1180008 16.515991,8.1180008z M2.5189819,0L6.7879944,0 6.7879944,7.8380025C6.7879944,8.9980028,7.7279968,9.9380014,8.8880005,9.9380014L19.594971,9.9380014C20.755005,9.9380014,21.695007,8.9980028,21.695007,7.8380025L21.695007,0 24.588013,0 28.482971,3.8950015 28.482971,15.188001C27.500977,14.760999 26.419006,14.521002 25.281982,14.521002 20.835999,14.521002 17.219971,18.136999 17.219971,22.583 17.219971,24.768005 18.096008,26.750007 19.513,28.203003L2.5189819,28.203003C1.1279907,28.203003,0,27.076004,0,25.684006L0,2.5190015C0,1.1279986,1.1279907,1.9563436E-07,2.5189819,0z" />
  </g>
</svg>

