<?xml version="1.0" encoding="UTF-8" standalone="no"?>
<svg
   xmlns:dc="http://purl.org/dc/elements/1.1/"
   xmlns:cc="http://creativecommons.org/ns#"
   xmlns:rdf="http://www.w3.org/1999/02/22-rdf-syntax-ns#"
   xmlns:svg="http://www.w3.org/2000/svg"
   xmlns="http://www.w3.org/2000/svg"
   xmlns:sodipodi="http://sodipodi.sourceforge.net/DTD/sodipodi-0.dtd"
   xmlns:inkscape="http://www.inkscape.org/namespaces/inkscape"
   height="100"
   width="100"
   viewBox="0 0 100 100"
   id="svg2"
   version="1.1"
   inkscape:version="0.91 r13725"
   sodipodi:docname="settings.svg">
  <metadata
     id="metadata11">
    <rdf:RDF>
      <cc:Work
         rdf:about="">
        <dc:format>image/svg+xml</dc:format>
        <dc:type
           rdf:resource="http://purl.org/dc/dcmitype/StillImage" />
        <dc:title></dc:title>
      </cc:Work>
    </rdf:RDF>
  </metadata>
  <defs
     id="defs9" />
  <sodipodi:namedview
     pagecolor="#ffffff"
     bordercolor="#666666"
     borderopacity="1"
     objecttolerance="10"
     gridtolerance="10"
     guidetolerance="10"
     inkscape:pageopacity="0"
     inkscape:pageshadow="2"
     inkscape:window-width="1920"
     inkscape:window-height="1137"
     id="namedview7"
     showgrid="false"
     inkscape:zoom="1.84375"
     inkscape:cx="64"
     inkscape:cy="61.655957"
     inkscape:window-x="-8"
     inkscape:window-y="-8"
     inkscape:window-maximized="1"
     inkscape:current-layer="svg2"
     fit-margin-top="0"
     fit-margin-left="0"
     fit-margin-right="0"
     fit-margin-bottom="0" />
  <g
     id="g4"
     transform="matrix(0.78125001,0,0,0.81095166,0,-1.9009079)">
    <path
       id="path1"
       transform="matrix(3.9999971,0,0,3.9999971,0,2.3440459)"
       d="m 16.062402,9.2779838 c -3.492035,0 -6.2850581,2.7940052 -6.2850581,6.2860102 0,3.492003 2.7930231,6.285002 6.2850581,6.285002 3.492033,0 6.285057,-2.893005 6.285057,-6.285002 0,-3.492005 -2.793024,-6.2860102 -6.285057,-6.2860102 z M 11.473342,0 c 0.898018,2.2949828 2.793023,4.4899899 5.886068,3.8909909 1.695998,-0.2990113 2.694024,-1.7959898 3.093012,-3.59200995 2.89303,0.4990232 4.290047,1.19799765 6.485073,3.39300455 -3.293028,3.1920163 -0.799018,9.7770065 4.589028,7.9810175 0.597997,2.393981 0.698004,5.486998 -0.100006,7.780974 -3.891026,-0.497986 -6.884062,1.098022 -6.186058,5.188019 0.100006,0.798004 1.497022,2.294982 1.497022,2.294982 0,0 -2.494009,3.192017 -6.186058,3.891022 -0.597997,-4.789001 -8.380077,-4.789001 -8.978074,0 -3.3920277,-0.598999 -4.5900358,-1.397003 -6.6850546,-3.59201 3.4920339,-2.893006 0.5990037,-9.576996 -4.5890288,-7.682007 -0.3990208,-2.393982 -0.3990208,-5.587005 0,-7.980986 4.7890424,1.19699 7.6820726,-3.0930174 5.6870298,-6.4850152 L 4.9883009,4.0910031 c 0,0 1.8960128,-2.5940245 6.4850411,-4.0910031 z"
       inkscape:connector-curvature="0" />
  </g>
</svg>
