<?xml version="1.0" encoding="utf-8"?>
<svg xmlns="http://www.w3.org/2000/svg" height="128" width="128" viewBox="0 0 128 128">
  <g>
    <path id="path1" class="icon" fill="currentColor" transform="rotate(0,64,64) translate(0,5.21600341796875) scale(4,4)" d="M14.345001,0C14.345001,0.099975586 14.746002,0 15.348,0 16.451004,0 18.156998,0.20098877 18.959,1.4039917 18.959,1.4039917 26.181999,2.2070007 21.969002,9.8309937 21.969002,9.8309937 22.972,9.9309998 22.570999,11.033997 22.570999,11.033997 22.168999,13.140991 21.567001,13.441986 21.567001,13.441986 21.567001,16.450989 19.560997,18.759003L19.560997,18.858978C20.063004,21.968994 25.278999,23.171997 25.278999,23.171997 28.790001,24.074982 32,25.980988 32,25.980988L32,29.391998 0,29.391998 0,25.078003C0.099998474,24.677002 5.4169998,22.971985 5.4169998,22.971985 8.125,22.269989 9.2290039,21.667999 9.2290039,21.667999 9.2290039,21.46698 9.7300034,21.165985 9.7300034,21.165985 10.933998,20.965973 11.536003,19.460999 11.737,18.65799 11.536003,18.457977 10.132004,16.651978 10.030998,13.240997 10.030998,13.240997 9.5299988,13.040985 9.0279999,10.432983 9.0279999,10.432983 8.9280014,9.6299744 9.8310013,9.5299988 9.8310013,9.5299988 8.6269989,5.617981 9.5299988,3.2099915 9.5299988,3.2099915 10.933998,0.60198975 14.345001,0z" />
  </g>
</svg>

